<?xml version="1.0"?>
<svg xmlns="http://www.w3.org/2000/svg" viewBox="0 0 100 140" xml:space="preserve">
  <defs>
    <path id="a" d="M771.944 1004.766h182.882v203.364H771.944z"/>
  </defs>
  <g style="display:inline" transform="translate(-45.554 -59.683)">
    <path style="fill:#e7a423;fill-opacity:1;stroke:#000;stroke-width:1;stroke-linecap:butt;stroke-linejoin:miter;stroke-dasharray:none;stroke-opacity:1" d="m122.602 177.6-.352 7.477c-.326 2.782-5.838 8.899-7.768 13.01 3.14-3.352 6.724-6.985 9.115-9.868-.536 3.43-1.606 9.322-1.43 9.466.165 1.094.454 1.475 1.099-.183.743-2.685 1.365-5.78 1.909-9.142 1.672 2.617 3.985 7.076 5.017 7.85.75.294 1.814 1.079 1.027-1.03l-5.645-11.534c-.72-2.034-.919-4.668-1.237-7.164M76.218 176.93l-1.224 9.68-1.305 12.259c-.365.674-.73 1.5-1.091-.099.058-3.613.208-8.59.176-10.84l-5.162 9.238c-1.758 1.667-1.877.709-1.607-.875-.048-.458 3.847-7.23 5.445-11.136-2.208.907-4.46 1.65-6.562 2.95-2.122 1.745-3.742 4.054-5.589 6.108-1.516 1.237-1.788.625-1.344-1.051.29-.872 3.493-4.798 6.045-6.649 1.736-1.18 2.51-.986 5.807-2.703 2.227-2.045 3.325-4.986 4.903-7.546"/>
    <path style="display:inline;fill:#ddf5fb;fill-opacity:1;stroke:#000;stroke-width:1;stroke-linecap:butt;stroke-linejoin:miter;stroke-dasharray:none;stroke-opacity:1" d="M121.028 82.657c-.083-1.016-2.76-6.14-4.796-8.565-1.655-1.971-4.092-3.469-5.815-4.215-1.63-.77-2.625-1.726-7.035-.875-2.146.585-3.56 1.418-5.019 2.262-5.278 3.055-7.813 8.65-11.493 13.183L76.453 98.278c-3.931 4.631-7.662 9.56-9.63 13.784-2.138 5.22-4.889 11.268-5.64 17.925-.806 7.027-.722 13.73-.285 19.51.325 5.302 1.403 10.31 3.052 15.096 1.137 3.105 3.31 6.748 4.542 7.595 2.827 2.24 5.776 3.706 8.684 5.434 3.462 2.03 7.3 3.264 11.278 4.206 5.979 1.067 11.538.876 17.23.567 5-.294 8.883-.807 13.756-2.585 3.694-1.78 8.334-5.56 10.259-7.355 3.311-3.664 6.799-7.736 7.758-16.035.236-5.115 1.923-8.12-2.531-20.207-1.493-4.938-3.458-10.054-6.806-15.692l-6.656-9.682c-.699-1.693-1.392-3.423-1.577-8.812-.11-2.295.922-9.252 1.39-13.486"/>
    <path style="display:inline;fill:#ffbe24;fill-opacity:1;stroke:none;stroke-width:.264583px;stroke-linecap:butt;stroke-linejoin:miter;stroke-opacity:1" d="M115.78 83.034c.125 0 26.204-3.679 26.204-3.679l-.163 1.388-24.198 9.692c-.3-.521-.978-2.435-1.27-3.492-.275-.992-.325-2.219-.573-3.91z"/>
    <path style="fill:none;stroke:#000;stroke-width:1;stroke-linecap:butt;stroke-linejoin:miter;stroke-dasharray:none;stroke-opacity:1" d="m116.34 86.909 26.276-7.133-26.773 3.723c9.329-1.443 19.015-3.403 27.967-4.302-4.721 3.86-17.579 7.216-26.383 10.823"/>
    <ellipse style="display:inline;fill:#f927e6;fill-opacity:1;stroke:#000;stroke-width:1;stroke-dasharray:none;stroke-opacity:1" cx="101.521" cy="83.523" rx="1.591" ry="1.427"/>
    <path style="display:inline;fill:none;stroke:#000;stroke-width:1;stroke-linecap:round;stroke-linejoin:miter;stroke-dasharray:none;stroke-opacity:1" d="m104.058 79.258 2.266-4.101M101.216 79.752l1.185-4.728M98.593 77.014l.764 3.42"/>
  </g>
</svg>
